<svg xmlns="http://www.w3.org/2000/svg" width="32.201" height="32" viewBox="0 0 32.201 32">
    <defs>
        <linearGradient id="linear-gradient" x1=".5" x2=".5" y2="1" gradientUnits="objectBoundingBox">
            <stop offset="0" stop-color="#1778f2"/>
            <stop offset="1" stop-color="#f40009"/>
        </linearGradient>
        <style>
            .cls-3{fill:#fff;stroke:#2d2d2d;stroke-linecap:round;stroke-linejoin:round;stroke-width:.4px}.cls-4{fill:#1778f2}.cls-8{fill:none}.cls-7{stroke:none}
        </style>
    </defs>
    <g id="Group_106978" data-name="Group 106978" transform="translate(-41.799 -93)">
        <g id="Group_106972" data-name="Group 106972" transform="translate(30.547 -21)">
            <g id="Group_1" data-name="Group 1" transform="translate(11.453 116)">
                <g id="Group_104695" data-name="Group 104695" transform="translate(3.365)">
                    <g id="Group_104678" data-name="Group 104678">
                        <g id="Group_88639" data-name="Group 88639">
                            <g id="Group_88638" data-name="Group 88638">
                                <path id="Path_183895" data-name="Path 183895" d="M243.653 178.156a34.234 34.234 0 0 1-8.872-8.872 5.587 5.587 0 0 1-1.59-3.855 5.435 5.435 0 0 1 1.59-3.855 46.736 46.736 0 0 1 8.872-8.871 5.585 5.585 0 0 1 3.855-1.591 5.433 5.433 0 0 1 3.855 1.591 53.369 53.369 0 0 1 8.872 8.871 5.585 5.585 0 0 1 1.591 3.855 5.436 5.436 0 0 1-1.591 3.855 53.028 53.028 0 0 1-8.872 8.872 5.618 5.618 0 0 1-2.345 1.379 5.307 5.307 0 0 1-1.51.211 5.634 5.634 0 0 1-1.877-.367 6.024 6.024 0 0 1-1.978-1.223z" transform="translate(-233.191 -151.111)" style="opacity:.07;fill:url(#linear-gradient)"/>
                            </g>
                        </g>
                    </g>
                </g>
                <g id="Group_104696" data-name="Group 104696" transform="translate(0 1.339)">
                    <circle id="Ellipse_13946" data-name="Ellipse 13946" class="cls-3" cx="3.168" cy="3.168" r="3.168" transform="translate(8.374)"/>
                    <path id="Path_184918" data-name="Path 184918" class="cls-3" d="M713.613 1027.12s.268-3.139 1.985-3.487a18.77 18.77 0 0 1 6.894 0s1.422-.108 2.092 3.487l.64 2.786a5.211 5.211 0 0 0 1.365 2.5 13.194 13.194 0 0 0 3.186 2.349 1.271 1.271 0 0 1 .611 1.169v.018c-.074.6-.816.7-1.532.4a23.574 23.574 0 0 1-5.22-3.449.2.2 0 0 0-.346.117l-.194 2.556a.571.571 0 0 0 .443.6l5.158 1.17a1.488 1.488 0 0 1 1.051 1.755c-.077.849-1.663 1.459-3.684 1.917a31.146 31.146 0 0 1-9.608.583c-3.455-.305-7.634-.986-7.913-2.5a2 2 0 0 1 1.716-1.99c1.4-.39 3.493-.878 4.426-1.092a.568.568 0 0 0 .44-.6l-.194-2.349a.2.2 0 0 0-.342-.123 14.16 14.16 0 0 1-5.371 3.271 1.142 1.142 0 0 1-.635.058 1.21 1.21 0 0 1-.5-.239.8.8 0 0 1 .17-1.418l.021-.01c.686-.343 4.014-1.373 4.529-3.638s.812-3.841.812-3.841z" transform="translate(-707.715 -1015.462)"/>
                    <path id="Path_38797" data-name="Path 38797" class="cls-4" d="M720.936 1032.37a1.078 1.078 0 0 1-.707-.354 7.88 7.88 0 0 1-1.135-1.187 4.512 4.512 0 0 1-1.158-2.133 1.682 1.682 0 0 1 .05-.5 1.57 1.57 0 0 1 .6-.824 1.716 1.716 0 0 1 2.062.2c.093.115.188.3.34.3s.235-.184.34-.312a1.561 1.561 0 0 1 1.849-.245 1.423 1.423 0 0 1 .557.707 1.554 1.554 0 0 1 .089.676 3.716 3.716 0 0 1-1 1.991 8.308 8.308 0 0 1-1.243 1.357 1.018 1.018 0 0 1-.644.324z" transform="translate(-709.545 -1016.142)"/>
                    <path id="Path_184919" data-name="Path 184919" d="M715.935 1041.028s1.535.837 6.069.767 3.862 2.723.8 3.043" transform="translate(-709.187 -1018.633)" style="fill:none;stroke-width:.4px;stroke:#2d2d2d;stroke-linecap:round;stroke-linejoin:round"/>
                </g>
            </g>
            <g id="Group_106970" data-name="Group 106970" transform="translate(31.928 116)">
                <g id="Group_106966" data-name="Group 106966">
                    <g id="Group_106965" data-name="Group 106965">
                        <g id="Ellipse_15091" data-name="Ellipse 15091" style="stroke:#1778f2;stroke-width:.4px;fill:#fff">
                            <circle class="cls-7" cx="5.711" cy="5.711" r="5.711"/>
                            <circle class="cls-8" cx="5.711" cy="5.711" r="5.511"/>
                        </g>
                        <path id="Path_186596" data-name="Path 186596" class="cls-4" d="M1.3-2.153a.578.578 0 0 1-.4-.139.5.5 0 0 1-.156-.4V-6.14A.489.489 0 0 1 .9-6.533a.59.59 0 0 1 .4-.134.607.607 0 0 1 .4.134.483.483 0 0 1 .161.393v3.45a.5.5 0 0 1-.161.4.6.6 0 0 1-.4.137zm0-5.31a.683.683 0 0 1-.483-.165.563.563 0 0 1-.179-.434.549.549 0 0 1 .179-.429.7.7 0 0 1 .483-.161.7.7 0 0 1 .478.161.543.543 0 0 1 .183.429.563.563 0 0 1-.179.434.683.683 0 0 1-.482.165z" transform="translate(4.26 11.114)"/>
                    </g>
                </g>
            </g>
        </g>
    </g>
</svg>
