<svg xmlns="http://www.w3.org/2000/svg" width="47.22" height="47.224" viewBox="0 0 47.22 47.224">
    <defs>
        <linearGradient id="a8xxfzqsfb" x1=".5" x2=".5" y2="1" gradientUnits="objectBoundingBox">
            <stop offset="0" stop-color="#c7dcff"/>
            <stop offset=".088" stop-color="#ccd8f8"/>
            <stop offset="1" stop-color="#ffabaf"/>
        </linearGradient>
        <clipPath id="m2lxuity2a">
            <path data-name="Path 183964" d="M850.249 141.214a49.124 49.124 0 0 1-12.76-12.76 8.021 8.021 0 0 1-2.289-5.543 7.82 7.82 0 0 1 2.289-5.545 67.025 67.025 0 0 1 12.76-12.76 8.023 8.023 0 0 1 5.544-2.287 7.819 7.819 0 0 1 5.545 2.287 76.634 76.634 0 0 1 12.76 12.76 8.023 8.023 0 0 1 2.288 5.545 7.815 7.815 0 0 1-2.288 5.543 76.078 76.078 0 0 1-12.76 12.76 8.093 8.093 0 0 1-3.372 1.986 7.8 7.8 0 0 1-2.173.3 8.164 8.164 0 0 1-2.7-.53 8.6 8.6 0 0 1-2.844-1.756z" transform="translate(826.779 -70.295)" style="stroke-width:.4px;stroke:#707070;fill:#fff"/>
        </clipPath>
    </defs>
    <g data-name="Group 182467">
        <g data-name="Group 88736">
            <g data-name="Group 88735">
                <g data-name="Group 88734">
                    <path data-name="Path 151981" d="M852.009 145.762a54.865 54.865 0 0 1-14.252-14.252 8.959 8.959 0 0 1-2.556-6.191 8.734 8.734 0 0 1 2.556-6.194 74.858 74.858 0 0 1 14.252-14.252 8.961 8.961 0 0 1 6.192-2.555 8.733 8.733 0 0 1 6.193 2.555 85.587 85.587 0 0 1 14.252 14.252 8.961 8.961 0 0 1 2.555 6.194 8.729 8.729 0 0 1-2.555 6.191 84.972 84.972 0 0 1-14.252 14.252 9.039 9.039 0 0 1-3.767 2.219 8.714 8.714 0 0 1-2.427.338 9.118 9.118 0 0 1-3.014-.592 9.607 9.607 0 0 1-3.177-1.965z" transform="translate(-835.001 -101.295)" style="stroke:#2d2d2d;stroke-width:.4px;fill:#fff"/>
                    <g data-name="Mask Group 1470" transform="translate(-1659.373 -28.593)" style="clip-path:url(#m2lxuity2a)">
                        <path data-name="Path 38798" d="M1810.206 126.237q-.517-.532-1.074-1.018a16.655 16.655 0 0 0-7.049-3.625 1.128 1.128 0 0 1-.885-1.09v-.231a1.151 1.151 0 0 1 .559-.966 11.121 11.121 0 0 0 4.494-9.441c0-5.79-3.546-10.483-7.922-10.483-3.669 0-6.757 3.3-7.714 8.095l-.185 1.588-.022.8a11.37 11.37 0 0 0 4.045 9.13 1.151 1.151 0 0 1 .483.916v.62a1.127 1.127 0 0 1-.874 1.088 16.678 16.678 0 0 0-8.61 5.268c-2.205 2.22-4.573 4.61-4.18 7.2.714 4.785 10.366 7.45 17.555 7.261 5.994-.157 15.248-2.428 16.032-7.261.497-3.058-2.605-5.947-4.653-7.851z" transform="translate(-115.416 -63.7)" style="stroke-miterlimit:10;stroke-width:.5px;fill:url(#a8xxfzqsfb);stroke:#2d2d2d"/>
                    </g>
                </g>
            </g>
        </g>
        <g data-name="Group 182464" transform="translate(-1673.78 -31)">
            <circle data-name="Ellipse 103946" cx="8" cy="8" r="8" transform="translate(1705 34)" style="fill:#e3493c"/>
            <text data-name="!" transform="translate(1713 47)" style="font-size:16px;font-family:Nunito-Bold,Nunito;font-weight:700;letter-spacing:.04em;fill:#fff"><tspan x="-1.984" y="0">!</tspan></text>
        </g>
    </g>
</svg>
