<svg width="40" height="41" viewBox="0 0 40 41" fill="none" xmlns="http://www.w3.org/2000/svg">
<path d="M11.7203 5.6449L13.3532 4.13972L12.7635 6.35539L11.9509 9.40789L11.9509 9.408C11.8119 9.92979 12.1214 10.4615 12.6295 10.5989C13.1348 10.7356 13.663 10.434 13.8018 9.9136L11.7203 5.6449ZM11.7203 5.6449C6.55552 8.6489 3.08259 14.3662 3.08259 20.8997C3.08259 30.5204 10.6292 38.392 19.9993 38.392C29.3693 38.392 36.9159 30.5202 36.9159 20.8997C36.9159 13.1398 32.0141 6.52927 25.1999 4.25022C24.6999 4.08273 24.4219 3.53418 24.5899 3.02053C24.7588 2.5095 25.3018 2.24012 25.799 2.40656L25.7993 2.40667C33.342 4.92726 38.8333 12.2468 38.8333 20.8992C38.8333 31.6552 30.3645 40.3333 20 40.3333C9.63552 40.3333 1.16667 31.6553 1.16667 20.8992C1.16667 13.8755 4.78379 7.72744 10.1837 4.3142L11.4677 3.50259L10.0011 3.10701L8.03384 2.57639C7.52573 2.43895 7.21626 1.90725 7.35524 1.38546C7.49405 0.864331 8.02134 0.563241 8.52613 0.699794L8.52648 0.699889L14.8055 2.39479C14.8055 2.3948 14.8055 2.3948 14.8056 2.39481C15.3142 2.53221 15.623 3.06327 15.4838 3.58565L15.4837 3.58598L13.8019 9.91326L11.7203 5.6449Z" fill="#1778F2" stroke="#1778F2" stroke-width="1.33333"/>
</svg>
